<svg viewBox="0 0 600 600" xmlns="http://www.w3.org/2000/svg">
  <rect width="600" height="600" fill="#f2e9d8"/>
  <circle cx="300" cy="300" r="270" fill="none" stroke="#e8dcc2" stroke-width="1"/>
  <g fill="none" stroke="#ad8a4e" stroke-width="2.5" stroke-linecap="round">
    <circle cx="300" cy="150" r="16" fill="#ad8a4e" stroke="none"/>
    <path d="M300 166 L300 196"/>
    <path d="M230 260 A70 70 0 0 1 370 260 L370 300 A70 70 0 0 1 230 300 Z" fill="#f6ead0" stroke="#ad8a4e"/>
    <path d="M230 260 A70 70 0 0 1 370 260" fill="none"/>
    <g stroke="#9c3b34" stroke-width="1.5">
      <path d="M255 240 L255 280"/>
      <path d="M280 226 L280 290"/>
      <path d="M300 220 L300 296"/>
      <path d="M320 226 L320 290"/>
      <path d="M345 240 L345 280"/>
    </g>
    <circle cx="300" cy="262" r="8" fill="#d9a441" stroke="none"/>
    <path d="M255 300 L245 330 M275 300 L268 335 M300 300 L300 340 M325 300 L332 335 M345 300 L355 330"/>
    <circle cx="245" cy="336" r="6" fill="#ad8a4e" stroke="none"/>
    <circle cx="268" cy="341" r="6" fill="#ad8a4e" stroke="none"/>
    <circle cx="300" cy="346" r="7" fill="#9c3b34" stroke="none"/>
    <circle cx="332" cy="341" r="6" fill="#ad8a4e" stroke="none"/>
    <circle cx="355" cy="336" r="6" fill="#ad8a4e" stroke="none"/>
  </g>
  <text x="300" y="560" text-anchor="middle" font-family="Georgia, serif" font-size="20" fill="#5c5042">Temple jhumka — concept sketch</text>
</svg>
